<?xml version="1.0" standalone="no"?>
<!DOCTYPE svg PUBLIC "-//W3C//DTD SVG 20010904//EN"
 "http://www.w3.org/TR/2001/REC-SVG-20010904/DTD/svg10.dtd">
<svg version="1.0" xmlns="http://www.w3.org/2000/svg"
 width="512.000000pt" height="512.000000pt" viewBox="0 0 512.000000 512.000000"
 preserveAspectRatio="xMidYMid meet">
<metadata>
Created by potrace 1.16, written by Peter Selinger 2001-2019
</metadata>
<g transform="translate(0.000000,512.000000) scale(0.100000,-0.100000)"
fill="#000000" stroke="none">
<path d="M2530 4497 c-60 -31 -93 -93 -87 -160 5 -54 28 -91 78 -125 31 -21
35 -30 50 -108 l16 -85 -21 5 c-12 3 -62 10 -113 16 -197 24 -430 -32 -591
-142 -24 -17 -47 -26 -51 -22 -5 5 -44 61 -87 124 l-80 115 19 46 c34 82 0
165 -85 207 -37 19 -56 22 -87 17 -87 -14 -143 -80 -143 -165 0 -85 56 -151
142 -165 38 -6 45 -14 130 -137 49 -71 90 -131 90 -134 0 -3 -23 -34 -51 -71
-174 -227 -215 -512 -112 -770 30 -76 92 -174 140 -225 l35 -36 -26 -112 c-36
-148 -56 -301 -56 -432 0 -97 -2 -109 -23 -134 -35 -40 -123 -53 -412 -62
-270 -8 -283 -11 -336 -69 -69 -73 -93 -170 -92 -363 1 -112 6 -163 22 -225
69 -262 233 -399 410 -340 99 32 195 161 224 300 l11 55 127 0 c69 0 142 3
160 6 l34 5 -40 -35 c-22 -19 -79 -59 -128 -87 -48 -28 -98 -64 -111 -80 -71
-84 -24 -206 169 -446 191 -237 446 -322 587 -195 23 20 52 60 64 87 40 84 31
234 -20 356 -6 13 13 30 78 73 103 69 228 185 296 274 92 122 166 290 185 416
9 54 10 55 130 81 243 53 511 182 585 283 l22 30 102 -5 c69 -4 115 -2 141 7
45 15 108 70 124 108 17 42 161 740 161 779 0 52 -37 110 -85 133 -31 15 -62
20 -124 20 -74 0 -82 2 -77 18 2 9 14 67 26 127 12 61 23 117 26 125 2 8 23
25 47 38 103 54 116 186 24 242 -39 24 -116 26 -156 5 -62 -32 -102 -110 -87
-170 3 -13 20 -40 36 -59 l30 -34 -25 -123 c-14 -68 -27 -134 -30 -146 -5 -22
-10 -23 -98 -23 -103 0 -153 -17 -199 -66 -41 -44 -52 -81 -93 -305 l-38 -207
-76 -13 c-42 -8 -116 -14 -166 -14 -74 1 -99 5 -145 26 l-54 25 44 31 c63 43
189 178 229 246 226 383 91 870 -305 1092 -92 52 -85 39 -115 209 -11 68 -11
68 15 92 43 40 59 81 54 139 -5 65 -37 111 -92 136 -55 25 -94 24 -146 -4z
m-160 -607 c90 -46 201 -153 263 -253 l38 -62 -133 -6 c-204 -10 -340 -53
-395 -126 -24 -31 -28 -48 -37 -159 -8 -107 -7 -129 8 -168 20 -53 68 -103
106 -111 15 -3 78 4 141 15 76 15 174 24 292 27 l178 6 -6 -29 c-29 -128 -68
-218 -140 -320 -74 -104 -110 -129 -199 -143 -140 -20 -265 -9 -391 36 -89 32
-143 63 -225 128 -116 92 -204 235 -235 380 -64 304 115 620 425 750 130 55
246 68 310 35z m125 -447 c-14 -37 -23 -171 -16 -237 5 -45 4 -69 -3 -71 -31
-10 -148 -25 -189 -25 -73 0 -81 14 -75 142 6 119 17 147 70 174 36 19 101 31
172 33 42 1 47 -1 41 -16z m1395 -447 c0 -3 -12 -38 -26 -78 -59 -163 -161
-336 -271 -457 l-49 -54 -49 16 c-28 9 -63 17 -80 19 -20 2 -29 8 -28 18 1 8
21 120 44 249 40 217 45 236 72 262 l29 29 179 0 c98 0 179 -2 179 -4z m-1957
-471 c47 -24 117 -54 154 -65 67 -20 69 -21 86 -69 34 -96 109 -134 298 -151
215 -19 464 -9 737 31 185 27 236 26 267 -6 30 -29 31 -57 5 -100 -66 -106
-320 -223 -615 -282 -72 -14 -136 -18 -315 -17 -212 0 -231 2 -324 27 -55 15
-101 25 -103 23 -2 -1 11 -22 27 -45 33 -45 98 -91 166 -117 l44 -17 -21 -29
c-30 -42 -148 -122 -232 -157 -156 -65 -342 -98 -607 -107 -109 -5 -178 -11
-182 -18 -4 -6 -8 -29 -8 -51 0 -92 -57 -235 -109 -276 -50 -40 -98 -37 -151
8 -71 60 -100 142 -100 286 0 101 12 148 53 210 58 88 174 145 362 181 219 41
250 48 300 67 32 12 66 34 84 55 l31 35 -1 147 c0 166 21 338 57 465 3 9 6 17
8 17 1 0 41 -20 89 -45z m487 -1079 c-25 -121 -123 -272 -256 -394 l-73 -67
46 -93 c43 -85 47 -100 51 -182 l4 -90 -35 -35 c-60 -60 -135 -48 -254 42
-141 107 -215 208 -215 294 0 71 36 126 188 289 131 141 137 146 207 171 127
46 277 129 323 180 l19 21 3 -41 c2 -23 -2 -66 -8 -95z"/>
<path d="M3800 4179 c-98 -8 -177 -32 -273 -81 -85 -44 -104 -66 -87 -98 14
-27 48 -25 93 5 127 87 346 121 507 80 201 -52 365 -210 405 -391 9 -40 23
-78 30 -84 18 -15 52 -4 66 21 13 26 -11 122 -53 209 -40 83 -168 212 -253
257 -126 66 -279 95 -435 82z"/>
<path d="M3805 4034 c-102 -16 -244 -79 -272 -120 -11 -17 -12 -27 -3 -43 15
-29 44 -26 96 10 122 84 302 98 441 34 57 -26 142 -99 173 -150 11 -18 28 -66
38 -106 18 -71 20 -74 50 -77 49 -5 60 29 37 114 -41 151 -166 270 -335 318
-60 16 -177 27 -225 20z"/>
<path d="M3765 3860 c-72 -23 -148 -83 -143 -113 5 -31 30 -42 60 -26 105 58
131 69 166 75 60 9 134 -12 181 -53 44 -37 81 -98 81 -133 0 -37 19 -60 49
-60 52 0 56 67 10 158 -69 139 -244 205 -404 152z"/>
</g>
</svg>
